<svg width="24" height="24" viewBox="0 0 24 24" fill="none" xmlns="http://www.w3.org/2000/svg">
<path d="M2.00037 20H18.0004" stroke="white" stroke-width="1.5" stroke-linecap="round" stroke-linejoin="round"/>
<path d="M3.82533 12.1661C3.55033 11.9661 3.30033 11.7161 3.00034 10.8411C2.91897 10.6241 2.61145 9.53619 2.35034 8.54109C2.13009 7.7017 1.93383 6.93555 2.02534 6.74109C2.10035 6.54109 2.20033 6.39109 2.52533 6.19109C2.72533 6.06802 3.75033 5.81609 3.95033 5.76609C4.15033 5.71609 4.42532 5.69109 4.65033 5.76609C5.07533 5.84109 5.95033 7.11609 6.17533 7.26609C6.27532 7.36609 6.60033 7.657 6.97533 7.69109C7.25033 7.71609 7.52533 7.64109 7.82534 7.51609C8.10033 7.40151 13.5254 4.76609 14.0254 4.54109C18.1004 2.84109 21.0604 5.63609 21.5104 6.23609C21.9754 6.81609 22.0754 6.99109 21.9504 7.49109C21.7888 8.01609 21.3504 8.11609 21.1004 8.19109C20.8504 8.26609 17.4004 9.19109 16.0504 9.56609C15.7555 9.6621 15.6115 9.85492 15.5754 9.89109C15.4004 10.1411 14.6054 11.8411 14.3804 12.2161C14.2254 12.6161 13.8004 13.1161 13.2504 13.3161C12.6754 13.5161 11.6754 13.7411 11.4504 13.8161C11.2254 13.8911 10.7004 14.0411 10.5254 13.9911C10.3004 13.9411 10.0854 13.7161 10.1854 13.3661C10.2854 13.0161 10.4754 12.0411 10.5004 11.8911C10.5254 11.7411 10.7754 11.1161 10.5004 11.0911C10.4504 11.0161 9.92533 11.2411 9.15033 11.4161C8.57455 11.5782 7.97156 11.7386 7.55033 11.8411C5.92533 12.3161 5.04527 12.4411 4.85033 12.4411C4.47533 12.4411 4.20033 12.3911 3.82533 12.1661Z" stroke="white" stroke-width="1.5"/>
</svg>
